<mxfile host="app.diagrams.net" modified="2023-06-26T19:22:31.235Z" agent="Mozilla/5.0 (X11; Linux x86_64) AppleWebKit/537.36 (KHTML, like Gecko) Chrome/113.0.0.0 Safari/537.36" etag="TOQ7Y_UE5ej5nk5eTwqS" version="21.5.0" type="device">
  <diagram name="Страница 1" id="xnPkMD1qqVIYu1uD-7Qd">
    <mxGraphModel dx="1687" dy="872" grid="1" gridSize="10" guides="1" tooltips="1" connect="1" arrows="1" fold="1" page="1" pageScale="1" pageWidth="1100" pageHeight="850" math="0" shadow="0">
      <root>
        <mxCell id="0" />
        <mxCell id="1" parent="0" />
        <mxCell id="rCcqUogLaCu2oxEtAN7Q-7" style="edgeStyle=orthogonalEdgeStyle;rounded=0;orthogonalLoop=1;jettySize=auto;html=1;entryX=0;entryY=0.5;entryDx=0;entryDy=0;" edge="1" parent="1" source="rCcqUogLaCu2oxEtAN7Q-1" target="rCcqUogLaCu2oxEtAN7Q-4">
          <mxGeometry relative="1" as="geometry" />
        </mxCell>
        <mxCell id="rCcqUogLaCu2oxEtAN7Q-1" value="feature set F" style="rounded=1;whiteSpace=wrap;html=1;" vertex="1" parent="1">
          <mxGeometry x="250" y="420" width="120" height="60" as="geometry" />
        </mxCell>
        <mxCell id="rCcqUogLaCu2oxEtAN7Q-13" style="edgeStyle=orthogonalEdgeStyle;rounded=0;orthogonalLoop=1;jettySize=auto;html=1;entryX=0;entryY=0.5;entryDx=0;entryDy=0;" edge="1" parent="1" source="rCcqUogLaCu2oxEtAN7Q-4" target="rCcqUogLaCu2oxEtAN7Q-5">
          <mxGeometry relative="1" as="geometry" />
        </mxCell>
        <mxCell id="rCcqUogLaCu2oxEtAN7Q-4" value="selecting subset&lt;br&gt;of features F&#39;" style="rounded=1;whiteSpace=wrap;html=1;" vertex="1" parent="1">
          <mxGeometry x="410" y="420" width="120" height="60" as="geometry" />
        </mxCell>
        <mxCell id="rCcqUogLaCu2oxEtAN7Q-8" style="edgeStyle=orthogonalEdgeStyle;rounded=0;orthogonalLoop=1;jettySize=auto;html=1;entryX=0;entryY=0.5;entryDx=0;entryDy=0;" edge="1" parent="1" source="rCcqUogLaCu2oxEtAN7Q-5" target="rCcqUogLaCu2oxEtAN7Q-6">
          <mxGeometry relative="1" as="geometry" />
        </mxCell>
        <mxCell id="rCcqUogLaCu2oxEtAN7Q-12" style="edgeStyle=orthogonalEdgeStyle;rounded=0;orthogonalLoop=1;jettySize=auto;html=1;exitX=0.5;exitY=0;exitDx=0;exitDy=0;entryX=0.5;entryY=0;entryDx=0;entryDy=0;" edge="1" parent="1" source="rCcqUogLaCu2oxEtAN7Q-5" target="rCcqUogLaCu2oxEtAN7Q-4">
          <mxGeometry relative="1" as="geometry" />
        </mxCell>
        <mxCell id="rCcqUogLaCu2oxEtAN7Q-5" value="training classifier&lt;br&gt;C on F&#39;" style="rounded=1;whiteSpace=wrap;html=1;" vertex="1" parent="1">
          <mxGeometry x="570" y="420" width="120" height="60" as="geometry" />
        </mxCell>
        <mxCell id="rCcqUogLaCu2oxEtAN7Q-6" value="resulting classifier&lt;br&gt;C* on feature&lt;br&gt;subset F*" style="rounded=1;whiteSpace=wrap;html=1;" vertex="1" parent="1">
          <mxGeometry x="730" y="420" width="120" height="60" as="geometry" />
        </mxCell>
        <mxCell id="rCcqUogLaCu2oxEtAN7Q-11" value="stopping criterion is not satisfied" style="text;html=1;strokeColor=none;fillColor=none;align=center;verticalAlign=middle;whiteSpace=wrap;rounded=0;" vertex="1" parent="1">
          <mxGeometry x="460" y="370" width="180" height="30" as="geometry" />
        </mxCell>
      </root>
    </mxGraphModel>
  </diagram>
</mxfile>
